<mxfile host="app.diagrams.net" modified="2022-05-03T08:52:10.119Z" agent="5.0 (X11)" etag="9kHlMd2VwEXTVdgz0lq9" version="17.5.0" type="github">
  <diagram id="C5RBs43oDa-KdzZeNtuy" name="Page-1">
    <mxGraphModel dx="868" dy="443" grid="1" gridSize="10" guides="1" tooltips="1" connect="1" arrows="1" fold="1" page="1" pageScale="1" pageWidth="827" pageHeight="1169" math="0" shadow="0">
      <root>
        <mxCell id="WIyWlLk6GJQsqaUBKTNV-0" />
        <mxCell id="WIyWlLk6GJQsqaUBKTNV-1" parent="WIyWlLk6GJQsqaUBKTNV-0" />
        <mxCell id="hdA1tVzNrWrjGCchrovp-7" value="" style="edgeStyle=orthogonalEdgeStyle;rounded=0;orthogonalLoop=1;jettySize=auto;html=1;entryX=0.5;entryY=0;entryDx=0;entryDy=0;" edge="1" parent="WIyWlLk6GJQsqaUBKTNV-1" source="hdA1tVzNrWrjGCchrovp-0" target="hdA1tVzNrWrjGCchrovp-3">
          <mxGeometry relative="1" as="geometry" />
        </mxCell>
        <mxCell id="hdA1tVzNrWrjGCchrovp-0" value="Scanner Sends ARP" style="swimlane;" vertex="1" parent="WIyWlLk6GJQsqaUBKTNV-1">
          <mxGeometry x="270" y="110" width="250" height="200" as="geometry" />
        </mxCell>
        <mxCell id="hdA1tVzNrWrjGCchrovp-1" value="&lt;div align=&quot;justify&quot;&gt;The device running this scanner will &lt;br&gt;&lt;/div&gt;&lt;div align=&quot;justify&quot;&gt;send an ARP request containing the &lt;br&gt;&lt;/div&gt;&lt;div align=&quot;justify&quot;&gt;specified IP address or range of IP&lt;/div&gt;&lt;div align=&quot;justify&quot;&gt;address. This request is broadcasted &lt;br&gt;&lt;/div&gt;&lt;div align=&quot;justify&quot;&gt;meaning every device in the network will &lt;br&gt;receive this but only the device with the &lt;br&gt;&lt;/div&gt;&lt;div align=&quot;justify&quot;&gt;intended IP address will respond.&lt;/div&gt;" style="text;html=1;align=center;verticalAlign=middle;resizable=0;points=[];autosize=1;strokeColor=none;fillColor=none;" vertex="1" parent="hdA1tVzNrWrjGCchrovp-0">
          <mxGeometry x="10" y="30" width="230" height="100" as="geometry" />
        </mxCell>
        <mxCell id="hdA1tVzNrWrjGCchrovp-9" value="" style="edgeStyle=orthogonalEdgeStyle;rounded=0;orthogonalLoop=1;jettySize=auto;html=1;" edge="1" parent="WIyWlLk6GJQsqaUBKTNV-1" source="hdA1tVzNrWrjGCchrovp-2" target="hdA1tVzNrWrjGCchrovp-8">
          <mxGeometry relative="1" as="geometry" />
        </mxCell>
        <mxCell id="hdA1tVzNrWrjGCchrovp-2" value="Start" style="ellipse;whiteSpace=wrap;html=1;" vertex="1" parent="WIyWlLk6GJQsqaUBKTNV-1">
          <mxGeometry x="70" y="140" width="120" height="80" as="geometry" />
        </mxCell>
        <mxCell id="hdA1tVzNrWrjGCchrovp-3" value="Device Receives the IP" style="swimlane;" vertex="1" parent="WIyWlLk6GJQsqaUBKTNV-1">
          <mxGeometry x="270" y="340" width="250" height="200" as="geometry">
            <mxRectangle x="260" y="370" width="160" height="23" as="alternateBounds" />
          </mxGeometry>
        </mxCell>
        <mxCell id="hdA1tVzNrWrjGCchrovp-4" value="&lt;div&gt;Devices&#39; that match their IP Address with &lt;br&gt;&lt;/div&gt;&lt;div&gt;the address in the ARP message will forward&lt;/div&gt;&lt;div&gt;their mac address.&lt;br&gt;&lt;/div&gt;" style="text;html=1;align=center;verticalAlign=middle;resizable=0;points=[];autosize=1;strokeColor=none;fillColor=none;" vertex="1" parent="hdA1tVzNrWrjGCchrovp-3">
          <mxGeometry y="30" width="250" height="50" as="geometry" />
        </mxCell>
        <mxCell id="hdA1tVzNrWrjGCchrovp-8" value="Get Arguments" style="shape=parallelogram;perimeter=parallelogramPerimeter;whiteSpace=wrap;html=1;fixedSize=1;" vertex="1" parent="WIyWlLk6GJQsqaUBKTNV-1">
          <mxGeometry x="70" y="260" width="120" height="60" as="geometry" />
        </mxCell>
      </root>
    </mxGraphModel>
  </diagram>
</mxfile>
